
<svg width="110px" height="23px" viewBox="0 0 110 23" version="1.1" xmlns="http://www.w3.org/2000/svg" xmlns:xlink="http://www.w3.org/1999/xlink">

    <defs>
        <polygon id="path-1" points="0.255996396 20.4444444 74.744354 20.4444444 74.744354 0.130844444 0.255996396 0.130844444"></polygon>
        <polygon id="path-3" points="3.07256354e-14 0 18.90625 0 18.90625 17.8888889 0 17.8888889 0 0"></polygon>
    </defs>
    <g id="1.-Primary-Nav" stroke="none" stroke-width="1" fill="none" fill-rule="evenodd">
        <g id="1.-Primary/-5.1-PrimaryNav-320px-open" transform="translate(-105.000000, -18.000000)">
            <g id="Page-1" transform="translate(105.000000, 18.000000)">
                <path d="M60.15625,15.3333333 L60.15625,2.55555556 L57.9066687,2.55555556 C57.069154,2.55555556 56.7719626,2.97411863 56.2321826,3.73424883 L52.7468392,8.67482211 L48.8934023,2.55555556 L46.4726778,2.55555556 C45.6664035,2.55555556 45.546875,3.28838223 45.546875,3.72605777 L45.546875,15.3333333 L48.319122,15.3333333 L48.319122,6.91729405 L52.0782944,12.5770422 L53.2564654,12.5770422 L57.1987338,6.94842008 L57.1987338,15.3333333 L60.15625,15.3333333 Z" id="Fill-1" fill="#FEFEFE"></path>
                <path d="M66.8100255,9.26907645 L66.8100255,4.6750831 L67.9079695,4.6750831 C69.9314232,4.6750831 70.2333772,5.93647911 70.2333772,6.68731007 C70.2333772,9.14867047 67.5274247,9.27371795 66.9847865,9.27371795 C66.9229997,9.27371795 66.8888747,9.27207977 66.8888747,9.27207977 L66.8100255,9.26907645 Z M66.9876302,11.3926994 C67.4134164,11.3926994 68.9128455,11.342462 70.3194651,10.6891026 C72.129121,9.84871795 73.046875,8.3773623 73.046875,6.31708215 C73.046875,5.18592118 72.616694,2.55555556 68.6266614,2.55555556 L64.4747939,2.55555556 C63.7082754,2.55555556 63.59375,3.28973172 63.59375,3.72657882 L63.59375,15.3333333 L66.8100255,15.3333333 L66.8100255,11.3921534 L66.8922355,11.3921534 C66.9085224,11.3921534 66.9387695,11.3926994 66.9876302,11.3926994 L66.9876302,11.3926994 Z" id="Fill-3" fill="#FEFEFE"></path>
                <path d="M42.96875,2.55555556 L40.545003,2.55555556 C39.7499625,2.55555556 39.6311356,3.31074299 39.6311356,3.76042662 L39.6311356,10.8460353 C39.6311356,13.2178354 38.408801,13.71586 37.382276,13.71586 C36.356824,13.71586 35.133953,13.2178354 35.133953,10.8460353 L35.133953,2.55555556 L32.7104742,2.55555556 C31.9157019,2.55555556 31.796875,3.31074299 31.796875,3.76042662 L31.796875,11.1127539 C31.796875,13.4269382 32.7659983,16.1851852 37.382276,16.1851852 C41.9990903,16.1851852 42.96875,13.4269382 42.96875,11.1127539 L42.96875,2.55555556 Z" id="Fill-5" fill="#FEFEFE"></path>
                <path d="M25.78125,15.3333333 L29.21875,15.3333333 L29.21875,2.55555556 L26.7231709,2.55555556 C25.9033764,2.55555556 25.78125,3.28836657 25.78125,3.72603276 L25.78125,15.3333333 Z" id="Fill-7" fill="#FEFEFE"></path>
                <g id="Group-11" transform="translate(12.890625, 2.555556)">
                    <mask id="mask-2" fill="white">
                        <use xlink:href="#path-1"></use>
                    </mask>
                    <g id="Clip-10"></g>
                    <path d="M3.90958006,6.7483883 C3.84447051,6.7483883 3.80832919,6.74650526 3.80832919,6.74650526 L3.72473515,6.74327719 L3.72473515,2.21994386 L4.85946215,2.21994386 C7.01745742,2.21994386 7.33914273,3.46140585 7.33914273,4.20144094 C7.33914273,6.62599064 4.48287514,6.7483883 3.90958006,6.7483883 L3.90958006,6.7483883 Z M74.744354,12.715745 L74.744354,0.130844444 L72.2536379,0.130844444 C71.4359062,0.130844444 71.313136,0.853394152 71.313136,1.28407251 L71.313136,3.38608421 L71.2430605,3.3995345 C69.6578086,3.69732398 68.0582104,4.29236491 66.3496366,5.21882105 L66.2194175,5.2901076 L66.2194175,0.130844444 L63.727046,0.130844444 C62.9093143,0.130844444 62.78682,0.853394152 62.78682,1.28407251 L62.78682,7.52070409 L62.7517823,7.54572164 C62.2220775,7.93524211 61.7268587,8.31642339 61.2909557,8.65187368 L61.1839112,8.73392047 C52.2923196,15.5408444 43.4338346,18.6102012 32.4603927,18.6839088 C32.3461751,18.6855228 32.2291987,18.6855228 32.1144293,18.6855228 C27.0574038,18.6857918 22.2045354,17.8664 18.0794593,16.3150433 C13.2784578,14.509476 9.65163523,11.8161895 7.30024253,8.30862222 L7.24313374,8.22334737 L7.33997039,8.18299649 C9.33077759,7.36225965 10.3410791,5.89994386 10.3410791,3.83774503 C10.3410791,2.7229848 9.88144987,0.132189474 5.625327,0.132189474 L1.19594652,0.132189474 C0.378490631,0.132189474 0.255996396,0.855277193 0.255996396,1.28514854 L0.255996396,12.7173591 L3.72473515,12.7173591 L3.72473515,8.83264561 L3.81522639,8.83506667 C3.81660583,8.83506667 3.89054379,8.83775673 4.01910756,8.83506667 L4.06131841,8.83479766 L4.0889072,8.86627135 C8.60933069,14.1479322 17.2002045,20.444552 32.459841,20.444552 C43.8769105,20.444552 53.1873,17.3329614 62.6450136,10.3568327 L62.78682,10.2527275 L62.78682,12.715745 L66.2194175,12.715745 L66.2194175,7.81687953 L66.2594212,7.79159298 C68.0921446,6.63809591 69.666637,5.99221287 71.2118852,5.76194386 L71.313136,5.74714854 L71.313136,12.715745 L74.744354,12.715745 Z" id="Fill-9" fill="#FEFEFE" mask="url(#mask-2)"></path>
                </g>
                <path d="M12.03125,2.55555556 L0.951828586,2.55555556 C0.16513927,2.55555556 0,3.19258769 0,3.72558671 L0,5.59408686 L4.22528753,5.59408686 L4.22528753,15.3333333 L7.78660131,15.3333333 L7.78660131,5.59408686 L11.0597755,5.59408686 C11.904833,5.59408686 12.03125,4.85984795 12.03125,4.4229635 L12.03125,2.55555556 Z" id="Fill-12" fill="#FEFEFE"></path>
                <g id="Group-16" transform="translate(91.093750, 0.000000)">
                    <mask id="mask-4" fill="white">
                        <use xlink:href="#path-3"></use>
                    </mask>
                    <g id="Clip-15"></g>
                    <path d="M18.0399146,2.50895897 L10.4689881,16.449776 C10.1841291,16.9765661 9.88035153,17.2014364 9.45306296,17.2014364 C9.02577439,17.2014364 8.72199681,16.9765661 8.43740803,16.449776 L0.866481615,2.50895897 C0.650269816,2.09289185 0.592703424,1.64885862 0.713782032,1.32125569 C0.809996283,1.05814603 1.00701928,0.871800462 1.29917548,0.766784891 C1.45376691,0.711994158 1.62889847,0.687737844 1.86538013,0.687737844 L17.0410161,0.687737844 C17.2769572,0.687737844 17.4526293,0.711994158 17.6072207,0.766784891 C17.8991066,0.871800462 18.0961296,1.05814603 18.1928844,1.32125569 C18.3134225,1.64885862 18.2563966,2.09289185 18.0399146,2.50895897 M18.8990862,1.52329652 C18.8850324,1.36463169 18.8515196,1.2128157 18.8001693,1.07269982 C18.7144954,0.839839201 18.5828764,0.637798374 18.4085557,0.472855439 C18.2450455,0.318185766 18.0461307,0.197760301 17.8172164,0.115288834 L17.8131624,0.11414736 C17.695327,0.072768942 17.5726268,0.0436613652 17.4393863,0.0251124192 C17.3193887,0.008561052 17.1891211,0 17.0410161,0 L1.86538013,0 C1.71754531,0 1.58700744,0.008561052 1.46700989,0.0251124192 C1.3334991,0.0436613652 1.21106917,0.072768942 1.09323374,0.11414736 L1.0889095,0.115288834 C0.860535791,0.197760301 0.661080406,0.318185766 0.498110762,0.472855439 C0.32324947,0.637798374 0.191630537,0.839839201 0.106497141,1.07269982 C0.0546063091,1.2128157 0.021363745,1.36463169 0.0075802428,1.52329652 C-0.00539246515,1.66911977 -0.00160875866,1.82065039 0.018120568,1.97446396 C0.0375796299,2.12028721 0.0708221941,2.26867878 0.11784826,2.41507277 C0.163793268,2.55918381 0.223792042,2.70158264 0.295141936,2.83970095 L0.30108776,2.85083032 L7.87228444,16.7919328 C7.96363392,16.9608709 8.056605,17.1044112 8.15606243,17.2302586 C8.21038564,17.2990324 8.2674115,17.3629549 8.32551842,17.420314 C8.38686852,17.4816682 8.45173206,17.537315 8.51848745,17.586113 C8.65713327,17.6888456 8.80848153,17.7664658 8.96847826,17.8166907 C9.11982652,17.8649179 9.28333669,17.8888889 9.45306296,17.8888889 C9.62332975,17.8888889 9.78629939,17.8649179 9.93818818,17.8166907 C10.0976444,17.7664658 10.2492629,17.6888456 10.388179,17.586113 C10.4546641,17.537315 10.5195277,17.4816682 10.5806075,17.420314 C10.6387144,17.3629549 10.6957403,17.2990324 10.7497932,17.2302586 C10.8497912,17.1044112 10.942492,16.9608709 11.034382,16.7919328 L18.6047679,2.85083032 L18.6112542,2.83970095 C18.6826041,2.70158264 18.7426029,2.55918381 18.7885479,2.41507277 C18.835574,2.26867878 18.8690868,2.12028721 18.8880053,1.97446396 C18.9077347,1.82065039 18.9115184,1.66911977 18.8990862,1.52329652" id="Fill-14" fill="#FEFEFE" mask="url(#mask-4)"></path>
                </g>
                <polygon id="Fill-17" fill="#FEFEFE" points="103.235176 6.88983716 105.01197 7.87679644 105.37394 7.23183642 103.235176 6.10301893 106.006782 6.10301893 106.5625 5.11111111 102.265625 5.11111111 102.265625 12.7777778 103.235176 11.0471626"></polygon>
                <polygon id="Fill-19" fill="#FEFEFE" points="97.8585131 6.88983716 96.0813391 7.87679644 95.7196158 7.23183642 97.8585131 6.10301893 95.0870032 6.10301893 94.53125 5.11111111 98.828125 5.11111111 98.828125 12.7777778 97.8585131 11.0471626"></polygon>
            </g>
        </g>
    </g>
</svg>